<svg width="240" height="241" viewBox="0 0 240 241" fill="none" xmlns="http://www.w3.org/2000/svg">
<g clip-path="url(#clip0_304_5127)">
<path d="M66.7162 27.5703C71.1062 28.1403 73.1461 30.3103 76.1161 33.3503C76.6962 33.9303 77.2862 34.5003 77.8862 35.0903C79.8462 37.0303 81.7762 38.9803 83.7162 40.9403C85.1162 42.3303 86.5162 43.7203 87.9162 45.1103C91.7162 48.8803 95.5062 52.6803 99.2862 56.4803C103.236 60.4503 107.206 64.4003 111.176 68.3603C117.836 75.0103 124.486 81.6703 131.126 88.3403C138.806 96.0503 146.506 103.75 154.216 111.43C160.836 118.02 167.446 124.62 174.046 131.23C177.986 135.18 181.926 139.13 185.886 143.07C189.606 146.77 193.306 150.49 196.996 154.21C198.356 155.58 199.726 156.94 201.096 158.3C202.956 160.15 204.806 162.01 206.646 163.89C207.196 164.42 207.746 164.96 208.316 165.51C210.826 168.1 211.946 169.63 212.436 173.25C211.706 177.85 208.826 179.27 205.236 181.92C179.726 198.34 150.926 203.35 121.286 197.5C94.9861 191.78 71.6762 174.69 56.9962 152.31C45.9762 134 40.5962 116.28 40.5662 95.0003C40.5562 93.9803 40.5562 93.9803 40.5562 92.9403C40.5762 81.3503 41.9962 70.9203 45.9962 60.0003C46.3562 58.9303 46.7262 57.8603 47.0962 56.7503C50.1862 48.4403 55.0162 40.9803 59.9162 33.6403C60.8062 32.3003 61.6262 30.9203 62.4262 29.5303C63.9962 28.0003 63.9962 28.0003 66.7162 27.5703Z" fill="url(#paint0_linear_304_5127)"/>
<path d="M41.8633 0.898438C46.0133 2.35844 48.3533 4.57844 51.3733 7.68844C51.9233 8.20844 52.4633 8.71844 53.0233 9.25844C55.5033 11.7484 56.9033 13.5584 57.6333 17.0184C56.8033 20.9384 55.1433 22.8884 52.5633 25.9384C31.9133 51.3984 24.6933 81.1584 27.6833 113.558C28.6433 122.468 30.8033 130.648 34.0033 138.998C34.2633 139.678 34.5233 140.358 34.7833 141.048C40.6533 155.998 49.3833 168.068 60.0033 179.998C60.5933 180.678 61.1933 181.358 61.8033 182.058C79.4033 200.978 107.883 212.368 133.283 213.418C163.243 214.018 190.863 207.328 214.433 188.008C215.213 187.368 216.003 186.728 216.813 186.058C217.503 185.478 218.183 184.888 218.893 184.288C221.673 182.588 222.793 182.308 226.003 182.998C228.543 184.788 230.653 186.908 232.813 189.128C233.413 189.698 234.003 190.268 234.623 190.848C237.333 193.578 238.833 195.308 239.743 199.098C238.723 203.078 236.493 204.888 233.373 207.308C232.783 207.788 232.203 208.258 231.593 208.748C199.383 234.158 161.253 243.478 120.793 238.988C92.3233 235.388 65.4933 221.948 45.0033 201.998C43.9633 201.038 42.9233 200.078 41.8933 199.108C18.4333 176.968 2.08328 143.608 0.853283 111.238C0.403283 93.9184 -0.0367188 76.7384 5.00328 59.9984C5.32328 58.9084 5.32328 58.9084 5.65328 57.7984C9.71328 44.4084 25.4633 1.47844 41.8633 0.898438Z" fill="url(#paint1_linear_304_5127)"/>
<path d="M123 115C125 117 125 117 125.44 120.88C125.16 131.67 118.09 144.45 110.91 152.27C106.53 156.26 103.63 157.7 97.75 158.38C92.82 157.88 89.75 156.18 86 153C82.69 148.65 82.28 144.07 82.48 138.73C83.79 131.79 89.41 128.26 94.94 124.44C103.52 118.78 112.43 113.85 123 115Z" fill="url(#paint2_linear_304_5127)"/>
<path d="M84.5625 83.6877C85.8225 83.6677 87.0825 83.6577 88.3825 83.6377C92.3125 84.0277 94.7125 84.8077 98.0025 86.9977C99.0425 88.9477 99.0425 88.9477 99.0025 90.9977C95.1525 98.1977 87.2725 102.908 80.0025 105.998C76.3925 106.878 73.5725 107.098 70.0025 105.998C67.1125 104.108 65.4225 102.148 64.0025 98.9977C63.5525 96.0277 63.8925 93.7877 65.0025 90.9977C69.9325 84.3277 76.6925 83.7077 84.5625 83.6877Z" fill="url(#paint3_linear_304_5127)"/>
<path d="M150.812 141.438C153.002 141.998 153.002 141.997 155.002 143.997C157.772 151.557 157.012 163.618 154.002 170.997C150.952 174.487 148.542 176.297 143.932 176.627C139.282 175.887 137.902 174.607 135.002 170.997C134.672 170.667 134.342 170.337 134.002 169.997C132.862 161.347 136.052 155.967 141.002 148.997C146.302 142.338 146.302 142.337 150.812 141.438Z" fill="url(#paint4_linear_304_5127)"/>
</g>
<defs>
<linearGradient id="paint0_linear_304_5127" x1="126.496" y1="27.5703" x2="126.496" y2="199.853" gradientUnits="userSpaceOnUse">
<stop offset="0.15613" stop-color="#FF001A"/>
<stop offset="1" stop-color="#FE1028"/>
</linearGradient>
<linearGradient id="paint1_linear_304_5127" x1="120.17" y1="0.898437" x2="120.17" y2="240.074" gradientUnits="userSpaceOnUse">
<stop offset="0.585" stop-color="#0DB81F"/>
<stop offset="1" stop-color="#0B8117"/>
</linearGradient>
<linearGradient id="paint2_linear_304_5127" x1="103.939" y1="114.832" x2="103.939" y2="158.38" gradientUnits="userSpaceOnUse">
<stop/>
<stop offset="1" stop-color="#3D3D3D"/>
</linearGradient>
<linearGradient id="paint3_linear_304_5127" x1="81.4122" y1="83.6377" x2="81.4122" y2="106.742" gradientUnits="userSpaceOnUse">
<stop/>
<stop offset="1" stop-color="#3D3D3D"/>
</linearGradient>
<linearGradient id="paint4_linear_304_5127" x1="145.245" y1="141.438" x2="145.245" y2="176.627" gradientUnits="userSpaceOnUse">
<stop/>
<stop offset="1" stop-color="#3D3D3D"/>
</linearGradient>
<clipPath id="clip0_304_5127">
<rect width="240" height="241" fill="white"/>
</clipPath>
</defs>
</svg>
