<svg width="129" height="40" viewBox="0 0 129 40" fill="none" xmlns="http://www.w3.org/2000/svg">
<rect width="127.137" height="40" transform="translate(0.931641)" fill="white"/>
<path d="M99.1419 16.5519C99.293 16.5503 99.444 16.5486 99.6 16.5469C99.8456 16.5469 99.8456 16.5469 100.096 16.5469C100.264 16.5469 100.432 16.5469 100.604 16.5453C100.961 16.5453 101.316 16.5436 101.671 16.5453C102.216 16.5453 102.76 16.542 103.305 16.537C103.65 16.537 103.995 16.537 104.339 16.537C104.503 16.5353 104.666 16.5337 104.835 16.532C104.986 16.5337 105.137 16.5353 105.295 16.5353C105.494 16.5353 105.494 16.5353 105.698 16.5353C106.134 16.6133 106.282 16.7428 106.544 17.0947C106.611 17.5992 106.611 17.5992 106.606 18.1735C106.607 18.459 106.607 18.459 106.611 18.7494C106.544 19.2523 106.544 19.2523 106.344 19.5278C105.95 19.8233 105.688 19.8216 105.198 19.8366C104.954 19.8449 104.954 19.8449 104.704 19.8532C104.534 19.8581 104.365 19.8615 104.189 19.8648C104.017 19.8714 103.846 19.8764 103.668 19.883C103.243 19.8963 102.82 19.9079 102.395 19.9162C102.473 20.1137 102.553 20.3113 102.632 20.5137C103.55 22.8042 104.466 25.0947 105.383 27.3851C105.824 26.9436 105.98 26.4341 106.196 25.8598C106.244 25.7386 106.29 25.6175 106.339 25.493C106.438 25.2324 106.538 24.9718 106.637 24.7113C106.793 24.3046 106.949 23.898 107.107 23.4913C107.318 22.9453 107.529 22.4009 107.739 21.8548C107.839 21.5959 107.939 21.337 108.038 21.0781C108.083 20.9635 108.128 20.8474 108.173 20.7278C108.44 20.0341 108.71 19.3436 108.983 18.6515C109.047 18.4805 109.114 18.3079 109.182 18.1303C109.243 17.976 109.305 17.82 109.368 17.659C109.419 17.5262 109.472 17.3917 109.525 17.254C109.698 16.9287 109.698 16.9287 110.196 16.5967C110.74 16.5536 110.74 16.5536 111.368 16.5552C111.575 16.5552 111.783 16.5536 111.997 16.5536C112.52 16.5967 112.52 16.5967 112.851 16.9287C112.868 18.4573 112.166 19.82 111.585 21.2025C111.474 21.4731 111.363 21.742 111.251 22.0125C111.077 22.4324 110.905 22.854 110.729 23.2739C110.315 24.2714 109.909 25.2722 109.505 26.2747C109.451 26.4142 109.394 26.5519 109.338 26.6947C109.122 27.2308 108.906 27.7685 108.69 28.3063C107.192 32.049 107.192 32.049 106.71 32.5303C106.302 32.5702 105.905 32.5934 105.497 32.6034C105.384 32.6117 105.271 32.6183 105.155 32.6266C104.823 32.6349 104.823 32.6349 104.221 32.5303C103.537 31.7021 103.192 30.7146 102.8 29.7254C102.729 29.5478 102.657 29.3718 102.584 29.1893C102.354 28.6166 102.124 28.0424 101.897 27.4681C101.739 27.0764 101.582 26.683 101.426 26.2913C101.192 25.7054 100.958 25.1212 100.724 24.5353C100.287 23.4415 99.8456 22.3511 99.3992 21.2623C99.2598 20.9237 99.122 20.5851 98.9842 20.2465C98.8598 19.9461 98.7353 19.6457 98.6108 19.3453C98.5394 19.1677 98.4664 18.9917 98.3917 18.8075C98.332 18.6598 98.2705 18.5121 98.2075 18.3577C98.0598 17.8565 98.0349 17.4498 98.0797 16.9287C98.483 16.5254 98.5876 16.5552 99.1419 16.5519Z" fill="#040404"/>
<path d="M87.7885 16.5975C87.9628 16.6871 88.1371 16.7751 88.318 16.8664C88.4723 16.9427 88.625 17.0174 88.7844 17.0954C89.0084 16.9925 89.2308 16.8797 89.4483 16.7635C90.1155 16.6224 90.6964 16.6124 91.2873 16.9776C91.6341 17.2763 91.9495 17.5967 92.2698 17.9253C92.3943 18.0299 92.5188 18.1328 92.6483 18.239C93.2922 18.7967 93.6873 19.2099 93.7536 20.083C93.6823 20.722 93.5395 21.0589 93.1047 21.5303C92.947 21.7012 92.947 21.7012 92.7877 21.8755C92.157 22.5311 91.5163 23.1768 90.869 23.8174C90.7329 23.9535 90.5951 24.0896 90.4541 24.2307C90.1188 24.5643 89.7835 24.8963 89.4483 25.2282C89.6707 25.5668 89.6707 25.5668 89.9462 25.8921C90.3578 25.9286 90.3578 25.9286 90.8076 25.8606C91.5014 25.8423 91.8765 25.8672 92.4043 26.327C92.64 26.566 92.8707 26.8099 93.0997 27.0539C93.2972 27.2498 93.4947 27.444 93.6922 27.6365C94.1122 28.0481 94.5304 28.4614 94.9454 28.878C95.0333 28.966 95.1213 29.0539 95.2126 29.1452C95.674 29.6548 95.6541 30.1577 95.6474 30.8182C95.5478 31.4772 95.2441 31.7477 94.7595 32.1992C94.3761 32.4714 94.1005 32.5294 93.6391 32.6241C92.7877 32.478 92.3727 31.9668 91.7719 31.3693C91.6723 31.273 91.5744 31.1751 91.4715 31.0755C90.9105 30.5245 90.3512 29.9734 89.7968 29.4158C89.6541 29.273 89.6541 29.273 89.508 29.127C89.2823 28.8797 89.2823 28.8797 89.1163 28.5477C89.1346 28.2606 89.1561 27.9734 89.1794 27.6863C89.1943 26.9743 89.1943 26.9743 88.8524 26.3718C88.5321 26.0763 88.5321 26.0763 88.1918 25.8307C87.9545 25.5602 87.9545 25.5602 87.9296 25.1817C88.2184 24.4979 88.7213 24.1046 89.2723 23.6199C89.498 23.4141 89.7254 23.2083 89.9528 23.0008C90.064 22.8996 90.1752 22.8 90.2898 22.6954C90.7279 22.3004 91.1595 21.9004 91.586 21.4938C91.7802 21.3112 91.7802 21.3112 91.9777 21.1253C92.3495 20.644 92.4441 20.3602 92.4358 19.751C92.1321 19.2747 92.1321 19.2747 91.679 18.8697C91.5346 18.727 91.3902 18.5826 91.2424 18.4348C90.7346 18.0597 90.4026 17.9734 89.7802 17.9253C89.8632 18.0548 89.9445 18.1859 90.0292 18.3203C90.3445 19.0805 90.4093 19.766 90.2781 20.5809C89.8715 21.4041 89.2458 21.995 88.6051 22.6357C88.4906 22.7519 88.3744 22.8664 88.2566 22.9859C88.0142 23.2299 87.7719 23.4722 87.5279 23.7145C87.1578 24.0863 86.7893 24.4581 86.4209 24.8315C86.1835 25.0672 85.9478 25.3046 85.7105 25.5402C85.5462 25.7079 85.5462 25.7079 85.3785 25.8772C84.708 26.5411 84.0707 27.1137 83.108 27.2846C82.0325 27.2116 81.4499 26.6971 80.6781 25.9784C80.059 25.2581 79.6956 24.5444 79.747 23.5734C80.064 22.1444 81.8134 20.8581 82.8142 19.8589C83.1312 19.5436 83.4449 19.2249 83.7586 18.9062C83.9628 18.7037 84.1669 18.4996 84.3694 18.2954C84.4624 18.2025 84.5553 18.1079 84.6499 18.0116C85.5628 17.1104 86.4391 16.4265 87.7885 16.5975Z" fill="#FF0606"/>
<path d="M54.2615 16.7635C54.5935 17.0954 54.5935 17.0954 54.6383 17.5884C54.6366 17.7809 54.6366 17.9751 54.6349 18.1743C54.6366 18.4647 54.6366 18.4647 54.6383 18.7602C54.5935 19.2531 54.5935 19.2531 54.2615 19.5851C54.0192 19.6697 53.7719 19.7444 53.5246 19.8141C53.0515 19.9651 52.7976 20.0564 52.4258 20.395C52.2399 20.8133 52.2316 21.1237 52.2698 21.5768C53.2972 22.2539 54.3511 22.5195 55.5379 22.8116C59.3935 23.7643 59.3935 23.7643 60.6715 24.9793C60.8042 25.1004 60.937 25.2216 61.0731 25.3477C61.8632 26.2656 61.8134 27.2764 61.7818 28.4365C61.6789 29.6664 61.1213 30.4481 60.2333 31.2797C59.2225 32.0631 57.7885 32.5826 56.5121 32.4896C56.3013 32.4282 56.3013 32.4282 56.0872 32.3651C55.8515 31.8954 55.8864 31.4888 55.8798 30.9643C55.8748 30.7734 55.8715 30.5826 55.8665 30.3851C55.9213 29.8755 55.9213 29.8755 56.1254 29.5701C56.474 29.3411 56.7578 29.2664 57.1661 29.1917C57.6009 29.1087 57.9893 29.0207 58.4109 28.8797C58.4574 28.6423 58.4972 28.4033 58.5354 28.1643C58.5586 28.0315 58.5818 27.8988 58.6051 27.761C58.615 27.3726 58.615 27.3726 58.3345 27.1187C57.7503 26.7983 57.1462 26.5942 56.5121 26.39C56.3793 26.3469 56.2466 26.3021 56.1088 26.2573C55.3403 26.0083 54.5769 25.8042 53.7835 25.6432C52.0391 25.2664 50.2831 24.4382 49.2922 22.9046C48.8939 21.7842 48.8856 20.2722 49.3652 19.1801C50.2051 17.8042 51.5528 17.0739 53.0582 16.629C53.498 16.5925 53.8383 16.6373 54.2615 16.7635Z" fill="#040404"/>
<path d="M66.2703 29.1472C66.5973 29.1455 66.5973 29.1455 66.9292 29.1422C67.1683 29.1439 67.4056 29.1439 67.6429 29.1455C67.8869 29.1455 68.1309 29.1439 68.3749 29.1439C68.8844 29.1439 69.3956 29.1439 69.9068 29.1472C70.5608 29.1488 71.2164 29.1472 71.8703 29.1455C72.3732 29.1439 72.8761 29.1439 73.3807 29.1455C73.6214 29.1455 73.8637 29.1455 74.1044 29.1439C74.4413 29.1422 74.7782 29.1455 75.1168 29.1472C75.3077 29.1472 75.5002 29.1472 75.6977 29.1488C76.1707 29.2119 76.1707 29.2119 76.4811 29.4327C76.7782 29.8708 76.7334 30.2675 76.7301 30.7887C76.7334 31.0741 76.7334 31.0741 76.7351 31.3646C76.6687 31.8675 76.6687 31.8675 76.4811 32.143C76.0263 32.4683 75.6712 32.4285 75.1168 32.4302C74.7898 32.4318 74.7898 32.4318 74.4562 32.4351C74.2189 32.4335 73.9815 32.4318 73.7425 32.4318C73.5002 32.4318 73.2562 32.4318 73.0122 32.4335C72.501 32.4335 71.9915 32.4318 71.4803 32.4302C70.8247 32.4268 70.1707 32.4285 69.5168 32.4318C69.0122 32.4335 68.5093 32.4335 68.0064 32.4318C67.7658 32.4318 67.5234 32.4318 67.2828 32.4335C66.9442 32.4335 66.6073 32.4318 66.2703 32.4302C66.0778 32.4285 65.8869 32.4285 65.6878 32.4285C65.2164 32.3654 65.2164 32.3654 64.906 32.143C64.6089 31.7065 64.6521 31.3082 64.6554 30.7887C64.6537 30.5032 64.6537 30.5032 64.6521 30.2127C64.7185 29.7098 64.7185 29.7098 64.906 29.4327C65.3608 29.109 65.716 29.1488 66.2703 29.1472Z" fill="#060606"/>
<path d="M66.2703 16.5331C66.5973 16.5314 66.5973 16.5314 66.9292 16.5281C67.1683 16.5298 67.4056 16.5298 67.6429 16.5314C67.8869 16.5314 68.1309 16.5298 68.3749 16.5298C68.8844 16.5298 69.3956 16.5298 69.9068 16.5331C70.5608 16.5347 71.2164 16.5331 71.8703 16.5314C72.3732 16.5298 72.8761 16.5298 73.3807 16.5314C73.6214 16.5314 73.8637 16.5314 74.1044 16.5298C74.4413 16.5281 74.7782 16.5314 75.1168 16.5331C75.3077 16.5331 75.5002 16.5331 75.6977 16.5347C76.1707 16.5978 76.1707 16.5978 76.4811 16.8185C76.7782 17.2567 76.7334 17.6534 76.7301 18.1746C76.7334 18.46 76.7334 18.46 76.7351 18.7505C76.6687 19.2534 76.6687 19.2534 76.4811 19.5289C76.0263 19.8542 75.6712 19.8144 75.1168 19.8161C74.7898 19.8177 74.7898 19.8177 74.4562 19.821C74.2189 19.8194 73.9815 19.8177 73.7425 19.8177C73.5002 19.8177 73.2562 19.8177 73.0122 19.8194C72.501 19.8194 71.9915 19.8177 71.4803 19.8161C70.8247 19.8127 70.1707 19.8144 69.5168 19.8177C69.0122 19.8194 68.5093 19.8194 68.0064 19.8177C67.7658 19.8177 67.5234 19.8177 67.2828 19.8194C66.9442 19.8194 66.6073 19.8177 66.2703 19.8161C66.0778 19.8144 65.8869 19.8144 65.6878 19.8144C65.2164 19.7513 65.2164 19.7513 64.906 19.5289C64.6089 19.0924 64.6521 18.6941 64.6554 18.1746C64.6537 17.8891 64.6537 17.8891 64.6521 17.5986C64.7185 17.0957 64.7185 17.0957 64.906 16.8185C65.3608 16.4949 65.716 16.5347 66.2703 16.5331Z" fill="#090909"/>
<path d="M66.1966 22.8428C66.3974 22.8411 66.5999 22.8411 66.8074 22.8394C67.1344 22.8411 67.1344 22.8411 67.468 22.8444C67.6937 22.8444 67.9194 22.8444 68.1435 22.8444C68.6165 22.8444 69.0879 22.8461 69.5609 22.8494C70.1667 22.8527 70.7725 22.8527 71.3783 22.8511C71.8447 22.8511 72.3095 22.8527 72.7758 22.8544C73.1078 22.8544 73.4397 22.8544 73.7717 22.8544C73.9725 22.856 74.1734 22.8577 74.3808 22.8594C74.5584 22.8594 74.736 22.861 74.9202 22.861C75.3402 22.9042 75.3402 22.9042 75.6721 23.2361C75.7053 23.6594 75.7186 24.0594 75.7136 24.4809C75.7153 24.6535 75.7153 24.6535 75.7169 24.8278C75.7136 25.6843 75.7136 25.6843 75.3402 26.0577C74.9202 26.1009 74.9202 26.1009 74.3808 26.1042C74.0804 26.1058 74.0804 26.1058 73.7717 26.1091C73.5543 26.1075 73.3352 26.1075 73.1111 26.1075C72.8854 26.1091 72.6597 26.1091 72.4356 26.1108C71.9626 26.1108 71.4895 26.1108 71.0165 26.1108C70.4107 26.1091 69.8049 26.1125 69.1991 26.1158C68.7344 26.1191 68.2696 26.1191 67.8032 26.1174C67.4713 26.1191 67.1393 26.1208 66.8074 26.1224C66.5053 26.1208 66.5053 26.1208 66.1966 26.1191C65.9294 26.1208 65.9294 26.1208 65.6572 26.1208C65.2157 26.0577 65.2157 26.0577 64.9103 25.8369C64.6066 25.4004 64.653 25.0038 64.6563 24.4809C64.653 24.1971 64.653 24.1971 64.6514 23.905C64.7178 23.4021 64.7178 23.4021 64.9103 23.1266C65.3451 22.8112 65.6622 22.8428 66.1966 22.8428Z" fill="#080808"/>
<path d="M87.1663 17.6862C87.7141 17.7742 87.9298 17.9302 88.3282 18.3086C88.4394 18.4115 88.5489 18.5127 88.6634 18.619C89.0253 18.9991 89.2643 19.2912 89.3423 19.819C89.2643 20.3866 89.0568 20.5874 88.6618 21.0007C88.456 21.2165 88.456 21.2165 88.2468 21.4372C88.0958 21.5932 87.9448 21.7476 87.7888 21.9086C87.6294 22.0762 87.4701 22.2455 87.3107 22.4132C86.8908 22.8563 86.4659 23.2928 86.0377 23.726C85.8618 23.9069 85.6875 24.0878 85.5132 24.2688C85.2576 24.536 84.9987 24.7999 84.7381 25.0621C84.5871 25.2181 84.4361 25.3742 84.28 25.5335C83.7174 25.96 83.3439 26.0364 82.6435 26.058C82.2518 25.8322 82.2518 25.8322 81.9282 25.5086C81.8186 25.4024 81.7107 25.2978 81.5979 25.1883C81.5049 25.092 81.412 24.9957 81.3157 24.8961C81.2062 24.7866 81.0966 24.6771 80.9838 24.5642C80.8908 24.1293 80.8908 24.1293 80.9838 23.5683C81.8385 22.3451 83.0468 21.2862 84.0941 20.2256C84.2966 20.0181 84.4991 19.8107 84.7016 19.6015C84.9954 19.2961 85.2925 18.9941 85.5912 18.6937C85.6792 18.5991 85.7688 18.5044 85.8601 18.4082C86.295 17.9766 86.5506 17.7692 87.1663 17.6862Z" fill="#FFF9F9"/>
<path d="M116.751 22.8423C117.036 22.8407 117.036 22.8407 117.327 22.839C117.83 22.9054 117.83 22.9054 118.107 23.1062C118.399 23.4979 118.391 23.7402 118.392 24.2282C118.394 24.4805 118.394 24.4805 118.397 24.7361C118.396 24.917 118.394 25.0996 118.394 25.2855C118.394 25.4714 118.394 25.6573 118.396 25.8481C118.396 26.2431 118.394 26.6365 118.392 27.0299C118.391 27.6324 118.392 28.2348 118.396 28.839C118.396 29.2207 118.394 29.6025 118.394 29.9842C118.396 30.2564 118.396 30.2564 118.397 30.5336C118.396 30.7012 118.394 30.8689 118.392 31.0415C118.392 31.1892 118.391 31.3369 118.391 31.4896C118.314 31.9461 118.202 32.0938 117.83 32.366C117.327 32.4307 117.327 32.4307 116.751 32.4274C116.465 32.429 116.465 32.429 116.175 32.4307C115.672 32.366 115.672 32.366 115.395 32.1635C115.103 31.7718 115.111 31.5295 115.109 31.0415C115.108 30.8739 115.106 30.7062 115.104 30.5336C115.106 30.3527 115.108 30.1701 115.108 29.9842C115.108 29.7983 115.108 29.6124 115.106 29.4216C115.106 29.0265 115.108 28.6332 115.109 28.2398C115.111 27.6373 115.109 27.0348 115.106 26.4307C115.106 26.049 115.108 25.6672 115.108 25.2855C115.108 25.1046 115.106 24.9236 115.104 24.7361C115.106 24.5685 115.108 24.4008 115.109 24.2282C115.109 24.0805 115.111 23.9328 115.111 23.7801C115.269 22.839 115.914 22.8373 116.751 22.8423Z" fill="#040404"/>
<path d="M50.1847 26.6494C50.2975 26.6444 50.4104 26.6378 50.5266 26.6328C50.8585 26.6295 50.8585 26.6295 51.4394 26.7224C51.7747 27.134 51.9125 27.4776 52.0834 27.9772C52.5465 28.9813 53.6303 29.3149 54.593 29.71C54.6029 30.09 54.6096 30.4701 54.6145 30.8502C54.6179 31.0627 54.6212 31.2734 54.6262 31.4925C54.593 32.0336 54.593 32.0336 54.261 32.3656C52.7274 32.5299 51.4195 31.929 50.2361 30.9747C49.217 30.0286 48.6925 28.8602 48.5664 27.4792C48.6826 26.5299 49.4062 26.656 50.1847 26.6494Z" fill="#060606"/>
<path d="M56.0869 16.7635C57.5956 16.6124 58.7392 17.1187 59.9342 18.0382C60.7043 18.7568 61.3151 19.5884 61.4495 20.6539C61.4595 21.029 61.4645 21.3726 61.3981 21.7427C60.9234 22.2174 60.5748 22.1294 59.9143 22.1377C59.7084 22.1411 59.501 22.146 59.2885 22.151C58.7425 22.0747 58.7425 22.0747 58.4288 21.7643C58.2445 21.4108 58.2445 21.4108 58.1101 20.9958C57.7035 20.1394 56.7342 19.8207 55.9209 19.4191C55.9159 19.039 55.9126 18.6589 55.9109 18.2772C55.9093 18.0664 55.906 17.8539 55.9043 17.6365C55.9209 17.0954 55.9209 17.0954 56.0869 16.7635Z" fill="#030303"/>
<path d="M116.751 16.5353C117.037 16.5336 117.037 16.5336 117.327 16.5319C117.83 16.5983 117.83 16.5983 118.106 16.7875C118.424 17.229 118.393 17.566 118.394 18.107C118.394 18.4041 118.394 18.4041 118.396 18.7079C118.394 18.9153 118.393 19.1228 118.391 19.3369C118.393 19.5427 118.394 19.7502 118.396 19.9643C118.396 20.1635 118.394 20.361 118.394 20.5651C118.394 20.7477 118.393 20.9286 118.393 21.1162C118.328 21.5776 118.328 21.5776 118.106 21.8846C117.669 22.185 117.272 22.1402 116.751 22.1369C116.466 22.1386 116.466 22.1386 116.175 22.1402C115.672 22.0755 115.672 22.0755 115.397 21.8846C115.078 21.4431 115.11 21.1062 115.108 20.5651C115.108 20.3676 115.106 20.1685 115.106 19.9643C115.108 19.7568 115.11 19.5494 115.111 19.3369C115.11 19.1294 115.108 18.922 115.106 18.7079C115.106 18.5087 115.108 18.3112 115.108 18.107C115.108 17.9245 115.11 17.7436 115.11 17.556C115.174 17.0963 115.174 17.0963 115.397 16.7875C115.833 16.4871 116.23 16.5319 116.751 16.5353Z" fill="#060606"/>
<path d="M10.854 6.11988C11.5062 6.20456 11.8092 6.52692 12.2504 6.97853C12.3366 7.0647 12.4242 7.14937 12.5134 7.23702C12.8045 7.52522 13.0912 7.8149 13.3794 8.10607C13.5874 8.31257 13.7954 8.51906 14.0034 8.72555C14.5679 9.28561 15.1309 9.85012 15.6925 10.4146C16.2793 11.0044 16.869 11.5912 17.4588 12.1795C18.4482 13.1674 19.4361 14.1568 20.4225 15.1476C21.5634 16.293 22.7073 17.4369 23.8526 18.5778C24.8361 19.5568 25.818 20.5372 26.7985 21.5192C27.3838 22.106 27.9691 22.6928 28.5574 23.2781C29.11 23.8277 29.6597 24.3804 30.2079 24.933C30.4099 25.1365 30.6134 25.3386 30.8169 25.5406C31.0933 25.8154 31.3681 26.0917 31.6414 26.371C31.7231 26.4498 31.8048 26.53 31.8895 26.6117C32.2624 26.9964 32.4288 27.2237 32.5016 27.7615C32.3931 28.4449 31.9653 28.6558 31.432 29.0495C27.6423 31.4888 23.3639 32.233 18.9607 31.364C15.0537 30.5142 11.5908 27.9754 9.41003 24.6507C7.77295 21.9307 6.97372 19.2983 6.96926 16.137C6.96777 15.9855 6.96777 15.9855 6.96777 15.831C6.97074 14.1092 7.18169 12.5598 7.77592 10.9375C7.8294 10.7786 7.88436 10.6196 7.93933 10.4547C8.39837 9.22024 9.11589 8.11202 9.84382 7.02162C9.97603 6.82255 10.0978 6.61754 10.2167 6.41105C10.4499 6.18376 10.4499 6.18376 10.854 6.11988Z" fill="url(#paint0_linear_71_3591)"/>
<path d="M7.16151 2.15767C7.77802 2.37456 8.12564 2.70435 8.57428 3.16636C8.65599 3.24361 8.73621 3.31938 8.8194 3.3996C9.18782 3.7695 9.39579 4.03839 9.50424 4.55239C9.38094 5.13473 9.13434 5.42441 8.75106 5.87751C5.68338 9.65974 4.61081 14.0808 5.05499 18.894C5.1976 20.2176 5.51848 21.4328 5.99386 22.6732C6.03249 22.7743 6.07111 22.8753 6.10974 22.9778C6.98176 25.1987 8.27865 26.9918 9.85632 28.764C9.94396 28.8651 10.0331 28.9661 10.1237 29.0701C12.7383 31.8807 16.9692 33.5728 20.7425 33.7288C25.1932 33.8179 29.2963 32.8241 32.7978 29.954C32.9137 29.8589 33.031 29.7638 33.1514 29.6643C33.2539 29.5781 33.3549 29.4905 33.4604 29.4013C33.8734 29.1488 34.0397 29.1072 34.5166 29.2097C34.8939 29.4756 35.2074 29.7906 35.5283 30.1204C35.6174 30.205 35.705 30.2897 35.7972 30.3759C36.1997 30.7814 36.4226 31.0384 36.5578 31.6015C36.4062 32.1927 36.075 32.4616 35.6115 32.8211C35.5238 32.8924 35.4376 32.9622 35.347 33.035C30.562 36.8098 24.8976 38.1944 18.887 37.5274C14.6576 36.9925 10.6719 34.996 7.62798 32.0323C7.47348 31.8897 7.31898 31.747 7.16597 31.6029C3.68085 28.3139 1.25196 23.3581 1.06923 18.5493C1.00238 15.9763 0.937019 13.4242 1.68574 10.9373C1.73328 10.7754 1.73328 10.7754 1.7823 10.6105C2.38544 8.62134 4.7252 2.24383 7.16151 2.15767Z" fill="url(#paint1_linear_71_3591)"/>
<path d="M19.2152 19.1081C19.5123 19.4052 19.5123 19.4052 19.5777 19.9816C19.5361 21.5846 18.4858 23.4831 17.4191 24.6448C16.7685 25.2375 16.3377 25.4515 15.4641 25.5525C14.7318 25.4782 14.2757 25.2257 13.7186 24.7533C13.2269 24.107 13.166 23.4266 13.1957 22.6334C13.3903 21.6024 14.2252 21.078 15.0467 20.5105C16.3213 19.6697 17.645 18.9373 19.2152 19.1081Z" fill="url(#paint2_linear_71_3591)"/>
<path d="M13.5048 14.4565C13.692 14.4535 13.8792 14.452 14.0723 14.449C14.6561 14.507 15.0127 14.6229 15.5014 14.9482C15.6559 15.2379 15.6559 15.2379 15.65 15.5424C15.078 16.612 13.9074 17.3117 12.8274 17.7708C12.2911 17.9015 11.8722 17.9342 11.3418 17.7708C10.9125 17.49 10.6615 17.1988 10.4505 16.7309C10.3837 16.2897 10.4342 15.9569 10.5991 15.5424C11.3314 14.5515 12.3357 14.4594 13.5048 14.4565Z" fill="url(#paint3_linear_71_3591)"/>
<path d="M23.347 23.0356C23.6724 23.1188 23.6724 23.1188 23.9695 23.4159C24.381 24.539 24.2681 26.3306 23.8209 27.4269C23.3678 27.9454 23.0098 28.2142 22.325 28.2633C21.6342 28.1533 21.4292 27.9632 20.9984 27.4269C20.9493 27.3779 20.9003 27.3288 20.8498 27.2783C20.6804 25.9933 21.1543 25.1941 21.8897 24.1587C22.677 23.1693 22.677 23.1693 23.347 23.0356Z" fill="url(#paint4_linear_71_3591)"/>
<path d="M90.9827 26.9768C91.6532 27.0896 91.9852 27.5162 92.425 27.9975C92.5927 28.1751 92.7603 28.3527 92.9279 28.5287C93.0093 28.615 93.0922 28.7029 93.1769 28.7926C93.4325 29.0465 93.6997 29.2739 93.9802 29.4996C94.4267 29.8747 94.4267 29.8747 94.6142 30.3013C94.5927 30.7046 94.5927 30.7046 94.3238 31.0996C93.9288 31.3685 93.9288 31.3685 93.5337 31.3419C93.0209 31.1776 92.7852 30.9735 92.4068 30.5934C92.2839 30.4689 92.1595 30.3461 92.0317 30.2183C91.9055 30.0872 91.7777 29.9577 91.6466 29.8233C91.5171 29.6955 91.3877 29.5677 91.2549 29.4349C90.1794 28.3477 90.1794 28.3477 90.1113 27.717C90.342 27.2573 90.4715 27.083 90.9827 26.9768Z" fill="#FFF5F5"/>
<path d="M79.1582 26.0581C79.6096 25.9784 79.8885 25.99 80.2702 26.2506C80.549 26.5046 80.7764 26.7386 80.9839 27.0539C80.964 27.532 80.964 27.532 80.8179 27.8838C80.3665 27.9635 80.0876 27.9519 79.7059 27.6913C79.427 27.4373 79.1997 27.2033 78.9922 26.888C79.0121 26.41 79.0121 26.41 79.1582 26.0581Z" fill="#FF1010"/>
<path d="M82.1449 23.4025C82.4237 23.4506 82.6992 23.5054 82.9748 23.5685C82.9748 23.8423 82.9748 24.1162 82.9748 24.3983C82.6992 24.4614 82.4237 24.5162 82.1449 24.5643C81.9789 24.3983 81.9789 24.3983 81.959 23.9834C81.9789 23.5685 81.9789 23.5685 82.1449 23.4025Z" fill="#FF1D1D"/>
<path d="M119.987 11.1124C119.987 10.7611 120.272 10.4763 120.623 10.4763H122.331C122.881 10.4763 123.327 10.0304 123.327 9.48045V7.773C123.327 7.4217 123.611 7.13692 123.963 7.13692C124.314 7.13692 124.599 7.4217 124.599 7.773V9.48045C124.599 10.0304 125.045 10.4763 125.595 10.4763H127.302C127.653 10.4763 127.938 10.7611 127.938 11.1124C127.938 11.4637 127.653 11.7484 127.302 11.7484H125.595C125.045 11.7484 124.599 12.1943 124.599 12.7443V14.4677C124.599 14.819 124.314 15.1037 123.963 15.1037C123.611 15.1037 123.327 14.819 123.327 14.4677V12.7443C123.327 12.1943 122.881 11.7484 122.331 11.7484H120.623C120.272 11.7484 119.987 11.4637 119.987 11.1124Z" fill="#009639"/>
<defs>
<linearGradient id="paint0_linear_71_3591" x1="19.7347" y1="6.11988" x2="19.7347" y2="31.7135" gradientUnits="userSpaceOnUse">
<stop offset="0.15613" stop-color="#FF001A"/>
<stop offset="1" stop-color="#FE1028"/>
</linearGradient>
<linearGradient id="paint1_linear_71_3591" x1="18.7945" y1="2.15767" x2="18.7945" y2="37.6886" gradientUnits="userSpaceOnUse">
<stop offset="0.585" stop-color="#0DB81F"/>
<stop offset="1" stop-color="#0B8117"/>
</linearGradient>
<linearGradient id="paint2_linear_71_3591" x1="16.3836" y1="19.0832" x2="16.3836" y2="25.5525" gradientUnits="userSpaceOnUse">
<stop/>
<stop offset="1" stop-color="#3D3D3D"/>
</linearGradient>
<linearGradient id="paint3_linear_71_3591" x1="13.0368" y1="14.449" x2="13.0368" y2="17.8814" gradientUnits="userSpaceOnUse">
<stop/>
<stop offset="1" stop-color="#3D3D3D"/>
</linearGradient>
<linearGradient id="paint4_linear_71_3591" x1="22.52" y1="23.0356" x2="22.52" y2="28.2633" gradientUnits="userSpaceOnUse">
<stop/>
<stop offset="1" stop-color="#3D3D3D"/>
</linearGradient>
</defs>
</svg>
