<svg width="766" height="241" viewBox="0 0 766 241" fill="none" xmlns="http://www.w3.org/2000/svg">
<rect width="766" height="241" fill="white"/>
<path d="M591.714 99.7255C592.624 99.7155 593.534 99.7055 594.474 99.6955C595.954 99.6955 595.954 99.6955 597.464 99.6955C598.474 99.6955 599.484 99.6955 600.524 99.6855C602.674 99.6855 604.814 99.6755 606.954 99.6855C610.234 99.6855 613.514 99.6655 616.794 99.6355C618.874 99.6355 620.954 99.6355 623.024 99.6355C624.014 99.6255 624.994 99.6155 626.014 99.6055C626.924 99.6155 627.834 99.6255 628.784 99.6255C629.984 99.6255 629.984 99.6255 631.214 99.6255C633.844 100.095 634.734 100.875 636.314 102.995C636.714 106.035 636.714 106.035 636.684 109.495C636.694 111.215 636.694 111.215 636.714 112.965C636.314 115.995 636.314 115.995 635.104 117.655C632.734 119.435 631.154 119.425 628.204 119.515C626.734 119.565 626.734 119.565 625.224 119.615C624.204 119.645 623.184 119.665 622.124 119.685C621.084 119.725 620.054 119.755 618.984 119.795C616.424 119.875 613.874 119.945 611.314 119.995C611.784 121.185 612.264 122.375 612.744 123.595C618.274 137.395 623.794 151.195 629.314 164.995C631.974 162.335 632.914 159.265 634.214 155.805C634.504 155.075 634.784 154.345 635.074 153.595C635.674 152.025 636.274 150.455 636.874 148.885C637.814 146.435 638.754 143.985 639.704 141.535C640.974 138.245 642.244 134.965 643.514 131.675C644.114 130.115 644.714 128.555 645.314 126.995C645.584 126.305 645.854 125.605 646.124 124.885C647.734 120.705 649.364 116.545 651.004 112.375C651.394 111.345 651.794 110.305 652.204 109.235C652.574 108.305 652.944 107.365 653.324 106.395C653.634 105.595 653.954 104.785 654.274 103.955C655.314 101.995 655.314 101.995 658.314 99.9955C661.594 99.7355 661.594 99.7355 665.374 99.7455C666.624 99.7455 667.874 99.7355 669.164 99.7355C672.314 99.9955 672.314 99.9955 674.314 101.995C674.414 111.205 670.184 119.415 666.684 127.745C666.014 129.375 665.344 130.995 664.674 132.625C663.624 135.155 662.584 137.695 661.524 140.225C659.034 146.235 656.584 152.265 654.154 158.305C653.824 159.145 653.484 159.975 653.144 160.835C651.844 164.065 650.544 167.305 649.244 170.545C640.214 193.095 640.214 193.095 637.314 195.995C634.854 196.235 632.464 196.375 630.004 196.435C629.324 196.485 628.644 196.525 627.944 196.575C625.944 196.625 625.944 196.625 622.314 195.995C618.194 191.005 616.114 185.055 613.754 179.095C613.324 178.025 612.894 176.965 612.454 175.865C611.064 172.415 609.684 168.955 608.314 165.495C607.364 163.135 606.414 160.765 605.474 158.405C604.064 154.875 602.654 151.355 601.244 147.825C598.614 141.235 595.954 134.665 593.264 128.105C592.424 126.065 591.594 124.025 590.764 121.985C590.014 120.175 589.264 118.365 588.514 116.555C588.084 115.485 587.644 114.425 587.194 113.315C586.834 112.425 586.464 111.535 586.084 110.605C585.194 107.585 585.044 105.135 585.314 101.995C587.744 99.5655 588.374 99.7455 591.714 99.7255Z" fill="#040404"/>
<path d="M523.312 100C524.362 100.54 525.412 101.07 526.502 101.62C527.432 102.08 528.352 102.53 529.312 103C530.662 102.38 532.002 101.7 533.312 101C537.332 100.15 540.832 100.09 544.392 102.29C546.482 104.09 548.382 106.02 550.312 108C551.062 108.63 551.812 109.25 552.592 109.89C556.472 113.25 558.852 115.74 559.252 121C558.822 124.85 557.962 126.88 555.342 129.72C554.392 130.75 554.392 130.75 553.432 131.8C549.632 135.75 545.772 139.64 541.872 143.5C541.052 144.32 540.222 145.14 539.372 145.99C537.352 148 535.332 150 533.312 152C534.652 154.04 534.652 154.04 536.312 156C538.792 156.22 538.792 156.22 541.502 155.81C545.682 155.7 547.942 155.85 551.122 158.62C552.542 160.06 553.932 161.53 555.312 163C556.502 164.18 557.692 165.35 558.882 166.51C561.412 168.99 563.932 171.48 566.432 173.99C566.962 174.52 567.492 175.05 568.042 175.6C570.822 178.67 570.702 181.7 570.662 185.68C570.062 189.65 568.232 191.28 565.312 194C563.002 195.64 561.342 195.99 558.562 196.56C553.432 195.68 550.932 192.6 547.312 189C546.712 188.42 546.122 187.83 545.502 187.23C542.122 183.91 538.752 180.59 535.412 177.23C534.552 176.37 534.552 176.37 533.672 175.49C532.312 174 532.312 174 531.312 172C531.422 170.27 531.552 168.54 531.692 166.81C531.782 162.52 531.782 162.52 529.722 158.89C527.792 157.11 527.792 157.11 525.742 155.63C524.312 154 524.312 154 524.162 151.72C525.902 147.6 528.932 145.23 532.252 142.31C533.612 141.07 534.982 139.83 536.352 138.58C537.022 137.97 537.692 137.37 538.382 136.74C541.022 134.36 543.622 131.95 546.192 129.5C547.362 128.4 547.362 128.4 548.552 127.28C550.792 124.38 551.362 122.67 551.312 119C549.482 116.13 549.482 116.13 546.752 113.69C545.882 112.83 545.012 111.96 544.122 111.07C541.062 108.81 539.062 108.29 535.312 108C535.812 108.78 536.302 109.57 536.812 110.38C538.712 114.96 539.102 119.09 538.312 124C535.862 128.96 532.092 132.52 528.232 136.38C527.542 137.08 526.842 137.77 526.132 138.49C524.672 139.96 523.212 141.42 521.742 142.88C519.512 145.12 517.292 147.36 515.072 149.61C513.642 151.03 512.222 152.46 510.792 153.88C509.802 154.89 509.802 154.89 508.792 155.91C504.752 159.91 500.912 163.36 495.112 164.39C488.632 163.95 485.122 160.85 480.472 156.52C476.742 152.18 474.552 147.88 474.862 142.03C476.772 133.42 487.312 125.67 493.342 119.65C495.252 117.75 497.142 115.83 499.032 113.91C500.262 112.69 501.492 111.46 502.712 110.23C503.272 109.67 503.832 109.1 504.402 108.52C509.902 103.09 515.182 98.9704 523.312 100Z" fill="#FF0606"/>
<path d="M321.313 101C323.313 103 323.313 103 323.583 105.97C323.573 107.13 323.573 108.3 323.563 109.5C323.573 111.25 323.573 111.25 323.583 113.03C323.313 116 323.313 116 321.313 118C319.853 118.51 318.363 118.96 316.873 119.38C314.023 120.29 312.493 120.84 310.253 122.88C309.133 125.4 309.083 127.27 309.313 130C315.503 134.08 321.853 135.68 329.003 137.44C352.233 143.18 352.233 143.18 359.933 150.5C360.733 151.23 361.533 151.96 362.353 152.72C367.113 158.25 366.813 164.34 366.623 171.33C366.003 178.74 362.643 183.45 357.293 188.46C351.203 193.18 342.563 196.31 334.873 195.75C333.603 195.38 333.603 195.38 332.313 195C330.893 192.17 331.103 189.72 331.063 186.56C331.033 185.41 331.013 184.26 330.983 183.07C331.313 180 331.313 180 332.543 178.16C334.643 176.78 336.353 176.33 338.813 175.88C341.433 175.38 343.773 174.85 346.313 174C346.593 172.57 346.833 171.13 347.063 169.69C347.203 168.89 347.343 168.09 347.483 167.26C347.543 164.92 347.543 164.92 345.853 163.39C342.333 161.46 338.693 160.23 334.873 159C334.073 158.74 333.273 158.47 332.443 158.2C327.813 156.7 323.213 155.47 318.433 154.5C307.923 152.23 297.343 147.24 291.373 138C288.973 131.25 288.923 122.14 291.813 115.56C296.873 107.27 304.993 102.87 314.063 100.19C316.713 99.9703 318.763 100.24 321.313 101Z" fill="#040404"/>
<path d="M393.664 175.612C395.634 175.602 395.634 175.602 397.634 175.582C399.074 175.592 400.504 175.592 401.934 175.602C403.404 175.602 404.874 175.592 406.344 175.592C409.414 175.592 412.494 175.592 415.574 175.612C419.514 175.622 423.464 175.612 427.404 175.602C430.434 175.592 433.464 175.592 436.504 175.602C437.954 175.602 439.414 175.602 440.864 175.592C442.894 175.582 444.924 175.602 446.964 175.612C448.114 175.612 449.274 175.612 450.464 175.622C453.314 176.002 453.314 176.002 455.184 177.332C456.974 179.972 456.704 182.362 456.684 185.502C456.704 187.222 456.704 187.222 456.714 188.972C456.314 192.002 456.314 192.002 455.184 193.662C452.444 195.622 450.304 195.382 446.964 195.392C444.994 195.402 444.994 195.402 442.984 195.422C441.554 195.412 440.124 195.402 438.684 195.402C437.224 195.402 435.754 195.402 434.284 195.412C431.204 195.412 428.134 195.402 425.054 195.392C421.104 195.372 417.164 195.382 413.224 195.402C410.184 195.412 407.154 195.412 404.124 195.402C402.674 195.402 401.214 195.402 399.764 195.412C397.724 195.412 395.694 195.402 393.664 195.392C392.504 195.382 391.354 195.382 390.154 195.382C387.314 195.002 387.314 195.002 385.444 193.662C383.654 191.032 383.914 188.632 383.934 185.502C383.924 183.782 383.924 183.782 383.914 182.032C384.314 179.002 384.314 179.002 385.444 177.332C388.184 175.382 390.324 175.622 393.664 175.612Z" fill="#060606"/>
<path d="M393.664 99.612C395.634 99.602 395.634 99.602 397.634 99.582C399.074 99.592 400.504 99.592 401.934 99.602C403.404 99.602 404.874 99.592 406.344 99.592C409.414 99.592 412.494 99.592 415.574 99.612C419.514 99.622 423.464 99.612 427.404 99.602C430.434 99.592 433.464 99.592 436.504 99.602C437.954 99.602 439.414 99.602 440.864 99.592C442.894 99.582 444.924 99.602 446.964 99.612C448.114 99.612 449.274 99.612 450.464 99.622C453.314 100.002 453.314 100.002 455.184 101.332C456.974 103.972 456.704 106.362 456.684 109.502C456.704 111.222 456.704 111.222 456.714 112.972C456.314 116.002 456.314 116.002 455.184 117.662C452.444 119.622 450.304 119.382 446.964 119.392C444.994 119.402 444.994 119.402 442.984 119.422C441.554 119.412 440.124 119.402 438.684 119.402C437.224 119.402 435.754 119.402 434.284 119.412C431.204 119.412 428.134 119.402 425.054 119.392C421.104 119.372 417.164 119.382 413.224 119.402C410.184 119.412 407.154 119.412 404.124 119.402C402.674 119.402 401.214 119.402 399.764 119.412C397.724 119.412 395.694 119.402 393.664 119.392C392.504 119.382 391.354 119.382 390.154 119.382C387.314 119.002 387.314 119.002 385.444 117.662C383.654 115.032 383.914 112.632 383.934 109.502C383.924 107.782 383.924 107.782 383.914 106.032C384.314 103.002 384.314 103.002 385.444 101.332C388.184 99.382 390.324 99.622 393.664 99.612Z" fill="#090909"/>
<path d="M393.221 137.627C394.431 137.617 395.651 137.617 396.901 137.607C398.871 137.617 398.871 137.617 400.881 137.637C402.241 137.637 403.601 137.637 404.951 137.637C407.801 137.637 410.641 137.647 413.491 137.667C417.141 137.687 420.791 137.687 424.441 137.677C427.251 137.677 430.051 137.687 432.861 137.697C434.861 137.697 436.861 137.697 438.861 137.697C440.071 137.707 441.281 137.717 442.531 137.727C443.601 137.727 444.671 137.737 445.781 137.737C448.311 137.997 448.311 137.997 450.311 139.997C450.511 142.547 450.591 144.957 450.561 147.497C450.571 148.537 450.571 148.537 450.581 149.587C450.561 154.747 450.561 154.747 448.311 156.997C445.781 157.257 445.781 157.257 442.531 157.277C440.721 157.287 440.721 157.287 438.861 157.307C437.551 157.297 436.231 157.297 434.881 157.297C433.521 157.307 432.161 157.307 430.811 157.317C427.961 157.317 425.111 157.317 422.261 157.317C418.611 157.307 414.961 157.327 411.311 157.347C408.511 157.367 405.711 157.367 402.901 157.357C400.901 157.367 398.901 157.377 396.901 157.387C395.081 157.377 395.081 157.377 393.221 157.367C391.611 157.377 391.611 157.377 389.971 157.377C387.311 156.997 387.311 156.997 385.471 155.667C383.641 153.037 383.921 150.647 383.941 147.497C383.921 145.787 383.921 145.787 383.911 144.027C384.311 140.997 384.311 140.997 385.471 139.337C388.091 137.437 390.001 137.627 393.221 137.627Z" fill="#080808"/>
<path d="M519.562 106.56C522.862 107.09 524.162 108.03 526.562 110.31C527.232 110.93 527.892 111.54 528.582 112.18C530.762 114.47 532.202 116.23 532.672 119.41C532.202 122.83 530.952 124.04 528.572 126.53C527.332 127.83 527.332 127.83 526.072 129.16C525.162 130.1 524.252 131.03 523.312 132C522.352 133.01 521.392 134.03 520.432 135.04C517.902 137.71 515.342 140.34 512.762 142.95C511.702 144.04 510.652 145.13 509.602 146.22C508.062 147.83 506.502 149.42 504.932 151C504.022 151.94 503.112 152.88 502.172 153.84C498.782 156.41 496.532 156.87 492.312 157C489.952 155.64 489.952 155.64 488.002 153.69C487.342 153.05 486.692 152.42 486.012 151.76C485.452 151.18 484.892 150.6 484.312 150C483.652 149.34 482.992 148.68 482.312 148C481.752 145.38 481.752 145.38 482.312 142C487.462 134.63 494.742 128.25 501.052 121.86C502.272 120.61 503.492 119.36 504.712 118.1C506.482 116.26 508.272 114.44 510.072 112.63C510.602 112.06 511.142 111.49 511.692 110.91C514.312 108.31 515.852 107.06 519.562 106.56Z" fill="#FFF9F9"/>
<path d="M697.813 137.625C699.533 137.615 699.533 137.615 701.283 137.605C704.313 138.005 704.313 138.005 705.983 139.215C707.743 141.575 707.693 143.035 707.703 145.975C707.713 147.495 707.713 147.495 707.733 149.035C707.723 150.125 707.713 151.225 707.713 152.345C707.713 153.465 707.713 154.585 707.723 155.735C707.723 158.115 707.713 160.485 707.703 162.855C707.693 166.485 707.703 170.115 707.723 173.755C707.723 176.055 707.713 178.355 707.713 180.655C707.723 182.295 707.723 182.295 707.733 183.965C707.723 184.975 707.713 185.985 707.703 187.025C707.703 187.915 707.693 188.805 707.693 189.725C707.233 192.475 706.553 193.365 704.313 195.005C701.283 195.395 701.283 195.395 697.813 195.375C696.093 195.385 696.093 195.385 694.343 195.395C691.313 195.005 691.313 195.005 689.643 193.785C687.883 191.425 687.933 189.965 687.923 187.025C687.913 186.015 687.903 185.005 687.893 183.965C687.903 182.875 687.913 181.775 687.913 180.655C687.913 179.535 687.913 178.415 687.903 177.265C687.903 174.885 687.913 172.515 687.923 170.145C687.933 166.515 687.923 162.885 687.903 159.245C687.903 156.945 687.913 154.645 687.913 152.345C687.913 151.255 687.903 150.165 687.893 149.035C687.903 148.025 687.913 147.015 687.923 145.975C687.923 145.085 687.933 144.195 687.933 143.275C688.883 137.605 692.773 137.595 697.813 137.625Z" fill="#040404"/>
<path d="M296.75 160.563C297.43 160.533 298.11 160.493 298.81 160.463C300.81 160.443 300.81 160.443 304.31 161.003C306.33 163.483 307.16 165.553 308.19 168.563C310.98 174.613 317.51 176.623 323.31 179.003C323.37 181.293 323.41 183.583 323.44 185.873C323.46 187.153 323.48 188.423 323.51 189.743C323.31 193.003 323.31 193.003 321.31 195.003C312.07 195.993 304.19 192.373 297.06 186.623C290.92 180.923 287.76 173.883 287 165.563C287.7 159.843 292.06 160.603 296.75 160.563Z" fill="#060606"/>
<path d="M332.313 101C341.403 100.09 348.293 103.14 355.493 108.68C360.133 113.01 363.813 118.02 364.623 124.44C364.683 126.7 364.713 128.77 364.313 131C361.453 133.86 359.353 133.33 355.373 133.38C354.133 133.4 352.883 133.43 351.603 133.46C348.313 133 348.313 133 346.423 131.13C345.313 129 345.313 129 344.503 126.5C342.053 121.34 336.213 119.42 331.313 117C331.283 114.71 331.263 112.42 331.253 110.12C331.243 108.85 331.223 107.57 331.213 106.26C331.313 103 331.313 103 332.313 101Z" fill="#030303"/>
<path d="M697.812 99.6251C699.532 99.6151 699.532 99.6151 701.282 99.6051C704.312 100.005 704.312 100.005 705.972 101.145C707.892 103.805 707.702 105.835 707.712 109.095C707.712 110.885 707.712 110.885 707.722 112.715C707.712 113.965 707.702 115.215 707.692 116.505C707.702 117.745 707.712 118.995 707.722 120.285C707.722 121.485 707.712 122.675 707.712 123.905C707.712 125.005 707.702 126.095 707.702 127.225C707.312 130.005 707.312 130.005 705.972 131.855C703.342 133.665 700.952 133.395 697.812 133.375C696.092 133.385 696.092 133.385 694.342 133.395C691.312 133.005 691.312 133.005 689.652 131.855C687.732 129.195 687.922 127.165 687.912 123.905C687.912 122.715 687.902 121.515 687.902 120.285C687.912 119.035 687.922 117.785 687.932 116.505C687.922 115.255 687.912 114.005 687.902 112.715C687.902 111.515 687.912 110.325 687.912 109.095C687.912 107.995 687.922 106.905 687.922 105.775C688.312 103.005 688.312 103.005 689.652 101.145C692.282 99.3351 694.672 99.6051 697.812 99.6251Z" fill="#060606"/>
<path d="M59.7768 36.8721C63.7061 37.3822 65.532 39.3245 68.1903 42.0455C68.7094 42.5646 69.2375 43.0748 69.7745 43.6028C71.5288 45.3392 73.2562 47.0846 74.9926 48.8389C76.2457 50.083 77.4988 51.3271 78.7519 52.5712C82.153 55.9456 85.5453 59.3468 88.9286 62.748C92.464 66.3013 96.0173 69.8367 99.5707 73.3811C105.532 79.3332 111.484 85.2943 117.427 91.2642C124.301 98.1651 131.193 105.057 138.094 111.931C144.019 117.829 149.935 123.737 155.842 129.653C159.369 133.188 162.895 136.724 166.44 140.25C169.769 143.562 173.081 146.892 176.384 150.221C177.601 151.447 178.827 152.665 180.054 153.882C181.718 155.538 183.374 157.203 185.021 158.885C185.513 159.36 186.006 159.843 186.516 160.335C188.762 162.653 189.765 164.023 190.203 167.263C189.55 171.38 186.972 172.651 183.759 175.023C160.926 189.72 135.149 194.204 108.62 188.968C85.0798 183.848 64.2162 168.552 51.0769 148.521C41.2135 132.132 36.3981 116.272 36.3713 97.2253C36.3623 96.3123 36.3623 96.3123 36.3623 95.3815C36.3802 85.0078 37.6512 75.6725 41.2314 65.8985C41.5536 64.9408 41.8848 63.9831 42.2159 62.9896C44.9816 55.5518 49.3047 48.8747 53.6905 42.305C54.4871 41.1057 55.221 39.8705 55.937 38.6264C57.3423 37.2569 57.3423 37.2569 59.7768 36.8721Z" fill="url(#paint0_linear_304_5134)"/>
<path d="M37.5325 13C41.2469 14.3068 43.3414 16.2938 46.0444 19.0774C46.5367 19.5428 47.02 19.9993 47.5212 20.4826C49.741 22.7113 50.994 24.3313 51.6474 27.4282C50.9045 30.9368 49.4187 32.6821 47.1095 35.412C28.6267 58.2 22.1645 84.8367 24.8407 113.836C25.6999 121.811 27.6332 129.133 30.4974 136.606C30.7301 137.215 30.9628 137.824 31.1955 138.441C36.4495 151.822 44.2633 162.625 53.7687 173.303C54.2968 173.912 54.8338 174.521 55.3798 175.147C71.1326 192.082 96.6236 202.276 119.358 203.216C146.174 203.753 170.895 197.765 191.991 180.473C192.689 179.9 193.396 179.327 194.121 178.727C194.739 178.208 195.348 177.68 195.983 177.143C198.471 175.622 199.474 175.371 202.347 175.989C204.62 177.591 206.509 179.488 208.442 181.475C208.979 181.985 209.507 182.496 210.062 183.015C212.488 185.458 213.83 187.007 214.645 190.399C213.732 193.961 211.736 195.581 208.943 197.747C208.415 198.177 207.896 198.597 207.35 199.036C178.521 221.779 144.392 230.121 108.179 226.102C82.6967 222.88 58.6825 210.851 40.3429 192.994C39.4121 192.135 38.4812 191.276 37.5593 190.408C16.5615 170.591 1.92742 140.733 0.82651 111.76C0.423737 96.2575 0.0299138 80.8806 4.54096 65.8974C4.82738 64.9218 4.82738 64.9218 5.12275 63.9283C8.75665 51.9436 22.8537 13.5191 37.5325 13Z" fill="url(#paint1_linear_304_5134)"/>
<path d="M110.154 115.127C111.944 116.917 111.944 116.917 112.338 120.39C112.087 130.047 105.759 141.486 99.3325 148.485C95.4122 152.057 92.8166 153.346 87.5537 153.954C83.1411 153.507 80.3933 151.985 77.0368 149.139C74.0742 145.245 73.7073 141.146 73.8863 136.366C75.0588 130.155 80.089 126.995 85.0386 123.576C92.7181 118.51 100.693 114.098 110.154 115.127Z" fill="url(#paint2_linear_304_5134)"/>
<path d="M75.7505 87.1004C76.8782 87.0825 78.006 87.0736 79.1696 87.0557C82.6871 87.4047 84.8352 88.1029 87.78 90.063C88.7108 91.8084 88.7108 91.8084 88.675 93.6432C85.2291 100.088 78.1761 104.303 71.6691 107.069C68.4379 107.857 65.9139 108.054 62.7186 107.069C60.1319 105.377 58.6192 103.623 57.3483 100.804C56.9455 98.1453 57.2498 96.1404 58.2433 93.6432C62.6559 87.6732 68.7064 87.1183 75.7505 87.1004Z" fill="url(#paint3_linear_304_5134)"/>
<path d="M135.048 138.789C137.008 139.29 137.008 139.29 138.798 141.08C141.277 147.847 140.597 158.641 137.903 165.247C135.173 168.37 133.016 169.99 128.89 170.286C124.728 169.624 123.493 168.478 120.897 165.247C120.602 164.951 120.306 164.656 120.002 164.352C118.982 156.609 121.837 151.794 126.267 145.556C131.011 139.595 131.011 139.595 135.048 138.789Z" fill="url(#paint4_linear_304_5134)"/>
<path d="M542.559 162.535C546.599 163.215 548.599 165.785 551.249 168.685C552.259 169.755 553.269 170.825 554.279 171.885C554.769 172.405 555.269 172.935 555.779 173.475C557.319 175.005 558.929 176.375 560.619 177.735C563.309 179.995 563.309 179.995 564.439 182.565C564.309 184.995 564.309 184.995 562.689 187.375C560.309 188.995 560.309 188.995 557.929 188.835C554.839 187.845 553.419 186.615 551.139 184.325C550.399 183.575 549.649 182.835 548.879 182.065C548.119 181.275 547.349 180.495 546.559 179.685C545.779 178.915 544.999 178.145 544.199 177.345C537.719 170.795 537.719 170.795 537.309 166.995C538.699 164.225 539.479 163.175 542.559 162.535Z" fill="#FFF5F5"/>
<path d="M471.312 157C474.033 156.52 475.712 156.59 478.012 158.16C479.693 159.69 481.062 161.1 482.312 163C482.193 165.88 482.193 165.88 481.312 168C478.592 168.48 476.913 168.41 474.613 166.84C472.933 165.31 471.562 163.9 470.312 162C470.432 159.12 470.433 159.12 471.312 157Z" fill="#FF1010"/>
<path d="M489.312 141C490.992 141.29 492.652 141.62 494.312 142C494.312 143.65 494.312 145.3 494.312 147C492.652 147.38 490.992 147.71 489.312 148C488.312 147 488.312 147 488.192 144.5C488.312 142 488.312 142 489.312 141Z" fill="#FF1D1D"/>
<path d="M717.312 66.9521C717.312 64.8356 719.028 63.1198 721.145 63.1198H731.432C734.746 63.1198 737.432 60.4335 737.432 57.1198V46.8323C737.432 44.7158 739.148 43 741.265 43C743.381 43 745.097 44.7158 745.097 46.8323V57.1198C745.097 60.4335 747.783 63.1198 751.097 63.1198H761.384C763.501 63.1198 765.217 64.8356 765.217 66.9521C765.217 69.0686 763.501 70.7844 761.384 70.7844H751.097C747.783 70.7844 745.097 73.4707 745.097 76.7844V87.1677C745.097 89.2842 743.381 91 741.265 91C739.148 91 737.432 89.2842 737.432 87.1677V76.7844C737.432 73.4707 734.746 70.7844 731.432 70.7844H721.145C719.028 70.7844 717.312 69.0686 717.312 66.9521Z" fill="#009639"/>
<defs>
<linearGradient id="paint0_linear_304_5134" x1="113.283" y1="36.8721" x2="113.283" y2="191.074" gradientUnits="userSpaceOnUse">
<stop offset="0.15613" stop-color="#FF001A"/>
<stop offset="1" stop-color="#FE1028"/>
</linearGradient>
<linearGradient id="paint1_linear_304_5134" x1="107.621" y1="13" x2="107.621" y2="227.074" gradientUnits="userSpaceOnUse">
<stop offset="0.585" stop-color="#0DB81F"/>
<stop offset="1" stop-color="#0B8117"/>
</linearGradient>
<linearGradient id="paint2_linear_304_5134" x1="93.0931" y1="114.977" x2="93.0931" y2="153.954" gradientUnits="userSpaceOnUse">
<stop/>
<stop offset="1" stop-color="#3D3D3D"/>
</linearGradient>
<linearGradient id="paint3_linear_304_5134" x1="72.9308" y1="87.0557" x2="72.9308" y2="107.736" gradientUnits="userSpaceOnUse">
<stop/>
<stop offset="1" stop-color="#3D3D3D"/>
</linearGradient>
<linearGradient id="paint4_linear_304_5134" x1="130.065" y1="138.789" x2="130.065" y2="170.286" gradientUnits="userSpaceOnUse">
<stop/>
<stop offset="1" stop-color="#3D3D3D"/>
</linearGradient>
</defs>
</svg>
